<svg width="39" height="39" viewBox="0 0 39 39" fill="none" xmlns="http://www.w3.org/2000/svg">
<g id="indeterminate_check_box" clip-path="url(#clip0_2351_834)">
<path id="Vector" d="M30.4701 5.70703H8.30339C6.56172 5.70703 5.13672 7.13203 5.13672 8.8737V31.0404C5.13672 32.782 6.56172 34.207 8.30339 34.207H30.4701C32.2117 34.207 33.6367 32.782 33.6367 31.0404V8.8737C33.6367 7.13203 32.2117 5.70703 30.4701 5.70703ZM25.7201 21.5404H13.0534C12.1826 21.5404 11.4701 20.8279 11.4701 19.957C11.4701 19.0862 12.1826 18.3737 13.0534 18.3737H25.7201C26.5909 18.3737 27.3034 19.0862 27.3034 19.957C27.3034 20.8279 26.5909 21.5404 25.7201 21.5404Z" fill="#FFD859"/>
<rect id="Rectangle 29" x="17.8037" y="12.0405" width="3.16667" height="15.8333" rx="1.58333" fill="white"/>
<rect id="Rectangle 30" x="27.3037" y="18.3735" width="3.16667" height="15.8333" rx="1.58333" transform="rotate(90 27.3037 18.3735)" fill="white"/>
</g>
<defs>
<clipPath id="clip0_2351_834">
<rect width="38" height="38" fill="white" transform="translate(0.386719 0.957031)"/>
</clipPath>
</defs>
</svg>
