<svg width="39" height="39" viewBox="0 0 39 39" fill="none" xmlns="http://www.w3.org/2000/svg">
<g id="-" clip-path="url(#clip0_2351_828)">
<path id="Vector" d="M30.1368 5.70703H7.97013C6.22847 5.70703 4.80347 7.13203 4.80347 8.8737V31.0404C4.80347 32.782 6.22847 34.207 7.97013 34.207H30.1368C31.8785 34.207 33.3035 32.782 33.3035 31.0404V8.8737C33.3035 7.13203 31.8785 5.70703 30.1368 5.70703ZM25.3868 21.5404H12.7201C11.8493 21.5404 11.1368 20.8279 11.1368 19.957C11.1368 19.0862 11.8493 18.3737 12.7201 18.3737H25.3868C26.2576 18.3737 26.9701 19.0862 26.9701 19.957C26.9701 20.8279 26.2576 21.5404 25.3868 21.5404Z" fill="#FFD859"/>
<rect id="Rectangle 30" x="26.9702" y="18.3735" width="3.16667" height="15.8333" rx="1.58333" transform="rotate(90 26.9702 18.3735)" fill="white"/>
</g>
<defs>
<clipPath id="clip0_2351_828">
<rect width="38" height="38" fill="white" transform="translate(0.0537109 0.957031)"/>
</clipPath>
</defs>
</svg>
