<svg width="25" height="25" viewBox="0 0 25 25" fill="none" xmlns="http://www.w3.org/2000/svg">
<g id="vuesax/bold/shopping-cart">
<g id="shopping-cart">
<path id="Vector" d="M16.291 23C17.2575 23 18.041 22.2165 18.041 21.25C18.041 20.2835 17.2575 19.5 16.291 19.5C15.3245 19.5 14.541 20.2835 14.541 21.25C14.541 22.2165 15.3245 23 16.291 23Z" fill="#0B4B7E"/>
<path id="Vector_2" d="M8.29102 23C9.25751 23 10.041 22.2165 10.041 21.25C10.041 20.2835 9.25751 19.5 8.29102 19.5C7.32452 19.5 6.54102 20.2835 6.54102 21.25C6.54102 22.2165 7.32452 23 8.29102 23Z" fill="#0B4B7E"/>
<path id="Vector_3" d="M4.88102 4.44L4.68102 6.89C4.64102 7.36 5.01102 7.75 5.48102 7.75H20.791C21.211 7.75 21.561 7.43 21.591 7.01C21.721 5.24 20.371 3.8 18.601 3.8H6.31102C6.21102 3.36 6.01102 2.94 5.70102 2.59C5.20102 2.06 4.50102 1.75 3.78102 1.75H2.04102C1.63102 1.75 1.29102 2.09 1.29102 2.5C1.29102 2.91 1.63102 3.25 2.04102 3.25H3.78102C4.09102 3.25 4.38102 3.38 4.59102 3.6C4.80102 3.83 4.90102 4.13 4.88102 4.44Z" fill="#0B4B7E"/>
<path id="Vector_4" d="M20.5511 9.25H5.21107C4.79107 9.25 4.45107 9.57 4.41107 9.98L4.05107 14.33C3.91107 16.04 5.25107 17.5 6.96107 17.5H18.0811C19.5811 17.5 20.9011 16.27 21.0111 14.77L21.3411 10.1C21.3811 9.64 21.0211 9.25 20.5511 9.25Z" fill="#0B4B7E"/>
</g>
</g>
</svg>
