<svg width="30" height="30" viewBox="0 0 30 30" fill="none" xmlns="http://www.w3.org/2000/svg">
<g id="ticket-percent">
<path id="Vector" d="M26.3649 18.3003L26.0661 19.1635L26.0661 19.1635L26.3649 18.3003ZM26.365 11.3936L26.6638 12.2567H26.6638L26.365 11.3936ZM4.39942 18.3003L4.69825 19.1635H4.69825L4.39942 18.3003ZM4.39942 11.3936L4.10059 12.2567H4.10059L4.39942 11.3936ZM19.6816 11.8392C20.0383 11.4825 20.0383 10.9042 19.6816 10.5475C19.3249 10.1908 18.7466 10.1908 18.3899 10.5475L19.6816 11.8392ZM11.0827 17.8546C10.726 18.2114 10.726 18.7897 11.0827 19.1464C11.4394 19.5031 12.0178 19.5031 12.3745 19.1464L11.0827 17.8546ZM8.07504 24.8943C5.88908 24.8943 4.11701 23.1222 4.11701 20.9362H2.29022C2.29022 24.1311 4.88017 26.7211 8.07504 26.7211V24.8943ZM26.6474 20.9362C26.6474 23.1222 24.8753 24.8943 22.6893 24.8943V26.7211C25.8842 26.7211 28.4741 24.1311 28.4741 20.9362H26.6474ZM22.6893 4.79962C24.8753 4.79962 26.6474 6.5717 26.6474 8.75766H28.4741C28.4741 5.56279 25.8842 2.97284 22.6893 2.97284V4.79962ZM8.07504 2.97284C4.88017 2.97284 2.29022 5.56279 2.29022 8.75766H4.11701C4.11701 6.5717 5.88908 4.79962 8.07504 4.79962V2.97284ZM26.6638 17.4372C25.5897 17.0653 24.8206 16.0448 24.8206 14.8469H22.9938C22.9938 16.8471 24.2791 18.5448 26.0661 19.1635L26.6638 17.4372ZM24.8206 14.8469C24.8206 13.6491 25.5897 12.6285 26.6638 12.2567L26.0661 10.5304C24.2791 11.1491 22.9938 12.8468 22.9938 14.8469H24.8206ZM5.94379 14.8469C5.94379 16.0448 5.17466 17.0653 4.10059 17.4372L4.69825 19.1635C6.48527 18.5448 7.77058 16.8471 7.77058 14.8469H5.94379ZM4.10059 12.2567C5.17466 12.6285 5.94379 13.6491 5.94379 14.8469H7.77058C7.77058 12.8468 6.48527 11.1491 4.69825 10.5304L4.10059 12.2567ZM28.4741 9.97552V8.75766H26.6474V9.97552H28.4741ZM26.6474 19.7184V20.9362H28.4741V19.7184H26.6474ZM2.29022 19.7184V20.9362H4.11701V19.7184H2.29022ZM4.11701 9.97552V8.75766H2.29022V9.97552H4.11701ZM22.6893 24.8943H8.07504V26.7211H22.6893V24.8943ZM22.6893 2.97284H8.07504V4.79962H22.6893V2.97284ZM4.10059 17.4372C3.27406 17.7234 2.29022 18.4975 2.29022 19.7184H4.11701C4.11701 19.6503 4.14234 19.5611 4.24088 19.452C4.34426 19.3376 4.50641 19.2299 4.69825 19.1635L4.10059 17.4372ZM26.6638 12.2567C27.4903 11.9705 28.4741 11.1964 28.4741 9.97552H26.6474C26.6474 10.0436 26.622 10.1328 26.5235 10.2419C26.4201 10.3563 26.258 10.464 26.0661 10.5304L26.6638 12.2567ZM4.69825 10.5304C4.50641 10.464 4.34426 10.3563 4.24088 10.2419C4.14234 10.1328 4.11701 10.0436 4.11701 9.97552H2.29022C2.29022 11.1964 3.27406 11.9705 4.10059 12.2567L4.69825 10.5304ZM26.0661 19.1635C26.258 19.2299 26.4201 19.3376 26.5235 19.452C26.622 19.5611 26.6474 19.6503 26.6474 19.7184H28.4741C28.4741 18.4975 27.4903 17.7234 26.6638 17.4372L26.0661 19.1635ZM12.0331 11.1934C12.0331 11.3615 11.8968 11.4978 11.7286 11.4978V13.3246C12.9057 13.3246 13.8599 12.3704 13.8599 11.1934H12.0331ZM11.7286 11.4978C11.5605 11.4978 11.4241 11.3615 11.4241 11.1934H9.59736C9.59736 12.3704 10.5516 13.3246 11.7286 13.3246V11.4978ZM11.4241 11.1934C11.4241 11.0252 11.5605 10.8889 11.7286 10.8889V9.06212C10.5516 9.06212 9.59736 10.0163 9.59736 11.1934H11.4241ZM11.7286 10.8889C11.8968 10.8889 12.0331 11.0252 12.0331 11.1934H13.8599C13.8599 10.0163 12.9057 9.06212 11.7286 9.06212V10.8889ZM19.3402 18.5005C19.3402 18.6687 19.2039 18.805 19.0358 18.805V20.6318C20.2128 20.6318 21.167 19.6776 21.167 18.5005H19.3402ZM19.0358 18.805C18.8676 18.805 18.7313 18.6687 18.7313 18.5005H16.9045C16.9045 19.6776 17.8587 20.6318 19.0358 20.6318V18.805ZM18.7313 18.5005C18.7313 18.3324 18.8676 18.1961 19.0358 18.1961V16.3693C17.8587 16.3693 16.9045 17.3235 16.9045 18.5005H18.7313ZM19.0358 18.1961C19.2039 18.1961 19.3402 18.3324 19.3402 18.5005H21.167C21.167 17.3235 20.2128 16.3693 19.0358 16.3693V18.1961ZM18.3899 10.5475L11.0827 17.8546L12.3745 19.1464L19.6816 11.8392L18.3899 10.5475Z" fill="#6C7275"/>
</g>
</svg>
