<svg width="20" height="20" viewBox="0 0 20 20" fill="none" xmlns="http://www.w3.org/2000/svg">
<g id="vuesax/outline/shopping-cart">
<g id="shopping-cart">
<path id="Vector" d="M15.1583 14.7917H6.28329C5.45829 14.7917 4.66662 14.4418 4.10829 13.8334C3.54995 13.2251 3.26663 12.4084 3.33329 11.5834L4.02496 3.28342C4.04996 3.02508 3.95829 2.77509 3.78329 2.58342C3.60829 2.39175 3.36662 2.29175 3.10829 2.29175H1.66663C1.32496 2.29175 1.04163 2.00841 1.04163 1.66675C1.04163 1.32508 1.32496 1.04175 1.66663 1.04175H3.11663C3.72496 1.04175 4.29995 1.30008 4.70829 1.74174C4.93329 1.99174 5.09996 2.28342 5.19162 2.60842H15.6C16.4416 2.60842 17.2166 2.94175 17.7833 3.54175C18.3416 4.15008 18.625 4.94175 18.5583 5.78342L18.1083 12.0334C18.0166 13.5584 16.6833 14.7917 15.1583 14.7917ZM5.23329 3.85008L4.58329 11.6834C4.54163 12.1667 4.69996 12.6251 5.02496 12.9834C5.34996 13.3417 5.79995 13.5334 6.28329 13.5334H15.1583C16.025 13.5334 16.8083 12.8001 16.875 11.9334L17.325 5.68342C17.3583 5.19175 17.2 4.72509 16.875 4.38342C16.55 4.03342 16.1 3.84174 15.6083 3.84174H5.23329V3.85008Z" fill="#0B4B7E"/>
<path id="Vector_2" d="M13.5417 18.9583C12.625 18.9583 11.875 18.2083 11.875 17.2917C11.875 16.375 12.625 15.625 13.5417 15.625C14.4583 15.625 15.2083 16.375 15.2083 17.2917C15.2083 18.2083 14.4583 18.9583 13.5417 18.9583ZM13.5417 16.875C13.3083 16.875 13.125 17.0583 13.125 17.2917C13.125 17.525 13.3083 17.7083 13.5417 17.7083C13.775 17.7083 13.9583 17.525 13.9583 17.2917C13.9583 17.0583 13.775 16.875 13.5417 16.875Z" fill="#0B4B7E"/>
<path id="Vector_3" d="M6.87504 18.9583C5.95837 18.9583 5.20837 18.2083 5.20837 17.2917C5.20837 16.375 5.95837 15.625 6.87504 15.625C7.79171 15.625 8.54171 16.375 8.54171 17.2917C8.54171 18.2083 7.79171 18.9583 6.87504 18.9583ZM6.87504 16.875C6.64171 16.875 6.45837 17.0583 6.45837 17.2917C6.45837 17.525 6.64171 17.7083 6.87504 17.7083C7.10837 17.7083 7.29171 17.525 7.29171 17.2917C7.29171 17.0583 7.10837 16.875 6.87504 16.875Z" fill="#0B4B7E"/>
<path id="Vector_4" d="M17.5 7.29175H7.5C7.15833 7.29175 6.875 7.00841 6.875 6.66675C6.875 6.32508 7.15833 6.04175 7.5 6.04175H17.5C17.8417 6.04175 18.125 6.32508 18.125 6.66675C18.125 7.00841 17.8417 7.29175 17.5 7.29175Z" fill="#0B4B7E"/>
</g>
</g>
</svg>
