<svg width="29" height="29" viewBox="0 0 29 29" fill="none" xmlns="http://www.w3.org/2000/svg">
<path d="M19.6249 27.0831C20.7525 27.0831 21.6666 26.169 21.6666 25.0414C21.6666 23.9138 20.7525 22.9998 19.6249 22.9998C18.4973 22.9998 17.5833 23.9138 17.5833 25.0414C17.5833 26.169 18.4973 27.0831 19.6249 27.0831Z" fill="#0B4B7E"/>
<path d="M10.2917 27.0831C11.4192 27.0831 12.3333 26.169 12.3333 25.0414C12.3333 23.9138 11.4192 22.9998 10.2917 22.9998C9.16409 22.9998 8.25 23.9138 8.25 25.0414C8.25 26.169 9.16409 27.0831 10.2917 27.0831Z" fill="#0B4B7E"/>
<path d="M6.31333 5.42984L6.08 8.28817C6.03333 8.8365 6.465 9.2915 7.01333 9.2915H24.875C25.365 9.2915 25.7733 8.91817 25.8083 8.42817C25.96 6.36317 24.385 4.68317 22.32 4.68317H7.98167C7.865 4.16984 7.63167 3.67984 7.27 3.2715C6.68667 2.65317 5.87 2.2915 5.03 2.2915H3C2.52167 2.2915 2.125 2.68817 2.125 3.1665C2.125 3.64484 2.52167 4.0415 3 4.0415H5.03C5.39167 4.0415 5.73 4.19317 5.975 4.44984C6.22 4.71817 6.33667 5.06817 6.31333 5.42984Z" fill="#0B4B7E"/>
<path d="M24.595 11.0415H6.69831C6.20831 11.0415 5.81165 11.4148 5.76498 11.8932L5.34498 16.9682C5.18165 18.9632 6.74498 20.6665 8.73998 20.6665H21.7133C23.4633 20.6665 25.0033 19.2315 25.1316 17.4815L25.5166 12.0332C25.5633 11.4965 25.1433 11.0415 24.595 11.0415Z" fill="#0B4B7E"/>
</svg>
